<?xml version="1.0" standalone="no"?>
<!DOCTYPE svg PUBLIC "-//W3C//DTD SVG 20010904//EN"
 "http://www.w3.org/TR/2001/REC-SVG-20010904/DTD/svg10.dtd">
<svg version="1.0" xmlns="http://www.w3.org/2000/svg"
 width="768.000000pt" height="768.000000pt" viewBox="0 0 768.000000 768.000000"
 preserveAspectRatio="xMidYMid meet">
<metadata>
Created by potrace 1.11, written by Peter Selinger 2001-2013
</metadata>
<g transform="translate(0.000000,768.000000) scale(0.100000,-0.100000)"
fill="#000000" stroke="none">
<path d="M6620 7654 c-36 -14 -72 -27 -80 -31 -8 -3 -19 -7 -25 -9 -5 -2 -95
-33 -200 -69 -104 -37 -194 -68 -200 -69 -5 -2 -17 -6 -25 -9 -8 -3 -202 -67
-430 -142 -228 -75 -422 -139 -430 -142 -8 -4 -17 -7 -20 -8 -3 -1 -24 -7 -48
-15 -23 -7 -44 -11 -46 -9 -2 2 -6 18 -9 34 -3 17 -9 41 -15 55 -5 14 -10 30
-11 35 -10 83 -58 260 -70 258 -9 -2 -58 -34 -141 -90 -14 -9 -77 -51 -140
-92 -63 -42 -117 -79 -120 -82 -3 -3 -16 -12 -29 -19 -14 -7 -30 -17 -35 -22
-6 -5 -54 -37 -106 -71 -52 -34 -96 -65 -98 -69 -2 -5 -10 -8 -18 -8 -8 0 -14
-4 -14 -9 0 -5 -8 -11 -17 -15 -10 -3 -23 -8 -29 -11 -10 -5 -33 34 -37 66 -2
8 -5 19 -8 24 -6 9 -91 259 -95 278 -1 4 -2 8 -4 10 -1 1 -3 9 -5 17 -13 47
-51 150 -56 150 -5 0 -55 -80 -154 -246 -11 -19 -61 -102 -111 -186 -50 -84
-105 -189 -123 -233 -18 -44 -36 -89 -41 -100 -5 -11 -19 -45 -30 -75 -12 -30
-26 -64 -31 -75 -4 -11 -20 -49 -34 -85 -15 -36 -35 -84 -46 -107 -10 -24 -19
-45 -19 -47 0 -3 -5 -17 -12 -33 -6 -15 -12 -30 -13 -33 -3 -10 -26 -66 -34
-85 -5 -11 -18 -43 -30 -72 -12 -28 -26 -64 -33 -80 -6 -15 -12 -30 -13 -33
-1 -3 -6 -16 -12 -30 -6 -14 -33 -81 -61 -150 -28 -69 -56 -138 -63 -155 -7
-16 -13 -32 -14 -35 -1 -3 -6 -16 -12 -30 -6 -14 -25 -61 -43 -105 -17 -44
-41 -100 -52 -125 -11 -24 -21 -49 -23 -55 -1 -5 -7 -21 -12 -35 -6 -14 -41
-99 -77 -190 -37 -91 -71 -174 -76 -185 -5 -11 -30 -72 -56 -135 -25 -63 -51
-126 -57 -140 -5 -14 -11 -29 -13 -35 -1 -5 -15 -41 -32 -80 -29 -70 -44 -105
-47 -115 -1 -3 -6 -16 -12 -30 -6 -14 -41 -100 -77 -190 -37 -91 -71 -174 -76
-185 -5 -11 -19 -45 -30 -75 -12 -30 -27 -68 -34 -85 -8 -16 -48 -115 -90
-220 -42 -104 -81 -199 -86 -210 -5 -11 -24 -58 -43 -105 -19 -47 -38 -94 -42
-105 -5 -11 -9 -22 -10 -25 -1 -3 -7 -18 -14 -35 -63 -156 -145 -366 -147
-375 0 -3 -6 -18 -13 -35 -7 -16 -14 -34 -15 -40 -2 -5 -8 -23 -15 -40 -7 -16
-24 -59 -38 -95 -13 -36 -40 -103 -58 -150 -109 -277 -168 -431 -170 -440 -1
-3 -5 -14 -9 -25 -17 -45 -19 -50 -20 -55 -3 -12 -60 -158 -73 -187 -8 -17
-16 -37 -17 -45 -2 -7 -9 -26 -15 -43 -20 -47 -55 -140 -56 -145 0 -5 -19 -54
-41 -105 -14 -35 -49 -128 -50 -135 0 -3 -8 -23 -18 -45 -10 -22 -19 -44 -20
-50 -2 -5 -6 -19 -11 -30 -61 -158 -127 -332 -129 -340 -2 -5 -8 -21 -13 -35
-6 -14 -56 -144 -111 -290 -55 -146 -110 -286 -121 -313 -11 -26 -20 -48 -20
-50 0 -3 -12 -36 -37 -99 -22 -57 -22 -66 4 -62 6 1 23 2 37 3 25 1 41 21 97
121 14 25 51 90 83 145 32 55 71 125 88 155 17 30 38 67 49 82 10 14 18 28 18
31 0 3 20 40 45 81 25 42 45 81 45 86 0 6 4 10 9 10 5 0 12 9 16 20 8 27 88
164 97 168 5 2 8 7 8 12 0 7 555 984 611 1075 11 17 22 37 26 45 3 8 18 33 32
55 14 22 26 42 26 45 0 3 19 37 41 75 23 39 47 81 54 95 7 14 16 27 19 30 3 3
15 23 26 45 11 22 25 47 31 55 6 8 28 47 49 85 21 39 45 81 54 95 9 14 23 39
31 55 8 17 17 32 20 35 6 5 87 147 143 250 17 30 34 57 39 58 4 2 8 8 8 13 0
14 268 477 288 496 10 10 52 41 92 68 41 28 77 53 80 56 5 6 394 263 518 342
40 26 77 47 81 47 5 0 11 4 13 8 3 7 316 203 460 288 29 17 127 75 218 129
249 148 471 275 481 275 5 0 9 3 9 8 0 4 10 12 23 17 31 15 111 59 117 65 3 3
25 16 50 29 36 20 316 197 380 241 8 6 62 40 120 77 58 37 107 71 108 75 2 4
8 8 12 8 15 0 182 112 176 117 -11 12 -159 26 -266 26 -133 0 -271 -10 -393
-29 -69 -10 -87 -12 -87 -6 0 3 21 28 48 56 26 29 90 98 142 155 52 57 106
116 120 131 14 15 63 69 110 121 183 201 291 318 317 345 13 13 19 25 15 27
-4 3 -69 4 -144 2 -76 -2 -138 -1 -138 1 0 5 103 136 130 164 36 39 60 71 60
79 0 5 3 11 8 13 6 2 74 83 105 123 4 6 37 49 75 96 37 47 76 98 87 113 11 16
25 33 31 40 6 6 39 49 73 96 35 47 67 87 72 88 5 2 9 10 9 17 0 7 3 15 8 17
20 8 312 435 312 456 0 6 3 12 8 14 10 5 48 88 56 126 7 31 7 32 -26 31 -18 0
-62 -11 -98 -25z m-1570 -602 c0 -5 -8 -17 -18 -28 -9 -10 -52 -62 -95 -114
-141 -171 -152 -183 -162 -194 -14 -16 -126 -157 -150 -191 -11 -15 -27 -35
-36 -44 -8 -9 -44 -52 -79 -96 -35 -44 -67 -82 -70 -85 -3 -3 -27 -34 -55 -70
-27 -36 -52 -67 -55 -70 -3 -3 -18 -23 -34 -45 -16 -22 -36 -47 -43 -55 -8 -8
-61 -78 -119 -155 -58 -77 -110 -147 -117 -155 -44 -54 -366 -512 -489 -695
-81 -121 -151 -224 -156 -230 -4 -5 -19 -29 -32 -52 -13 -24 -27 -43 -32 -43
-4 0 -8 -4 -8 -10 0 -8 -102 -171 -128 -205 -4 -5 -23 -35 -41 -65 -19 -30
-44 -71 -56 -90 -49 -77 -111 -177 -122 -195 -13 -21 -150 -247 -170 -280 -7
-11 -15 -27 -19 -35 -4 -8 -12 -22 -19 -30 -11 -13 -35 -56 -91 -160 -11 -19
-21 -37 -24 -40 -3 -3 -11 -16 -18 -29 -109 -193 -195 -348 -221 -396 -18 -33
-42 -78 -55 -100 -12 -22 -48 -89 -81 -150 -32 -60 -61 -114 -65 -120 -9 -11
-115 -217 -204 -393 -31 -61 -59 -112 -61 -112 -4 0 16 54 35 95 5 11 19 45
30 75 11 30 25 64 30 75 9 20 35 83 50 120 5 11 17 40 28 65 11 25 46 104 77
175 80 182 131 288 258 540 60 121 117 235 126 253 8 17 19 32 23 32 4 0 8 8
8 18 0 9 9 28 20 42 11 14 20 28 20 33 0 4 27 54 60 111 33 57 63 113 67 123
4 10 11 23 15 28 8 9 99 161 132 220 43 77 102 171 108 173 5 2 8 8 8 13 0 8
87 148 107 174 5 6 29 43 53 83 25 39 48 72 52 72 5 0 8 4 8 9 0 18 336 500
434 622 12 15 30 39 41 54 22 31 203 262 220 282 5 6 21 26 35 44 14 18 34 43
45 56 11 12 34 39 50 60 48 60 256 304 296 348 21 22 47 52 58 67 12 15 36 42
54 61 17 18 57 62 87 96 62 71 81 91 270 291 74 78 153 162 175 186 43 47 45
48 45 36z"/>
</g>
</svg>
