<?xml version="1.0" standalone="no"?>
<!DOCTYPE svg PUBLIC "-//W3C//DTD SVG 20010904//EN"
 "http://www.w3.org/TR/2001/REC-SVG-20010904/DTD/svg10.dtd">
<svg version="1.0" xmlns="http://www.w3.org/2000/svg"
 width="700.000000pt" height="700.000000pt" viewBox="0 0 700.000000 700.000000"
 preserveAspectRatio="xMidYMid meet">
<metadata>
Created by potrace 1.11, written by Peter Selinger 2001-2013
</metadata>
<g transform="translate(0.000000,700.000000) scale(0.100000,-0.100000)"
fill="#000000" stroke="none">
<path d="M6150 6983 c-8 -2 -24 -9 -35 -14 -37 -17 -275 -99 -841 -288 l-561
-188 -43 178 c-23 99 -46 179 -50 179 -5 0 -160 -101 -345 -225 -186 -124
-341 -225 -345 -225 -4 0 -45 113 -91 250 -46 138 -86 250 -89 250 -7 0 -311
-505 -328 -544 -8 -17 -65 -157 -127 -311 -63 -154 -151 -370 -195 -480 -45
-110 -115 -283 -156 -385 -41 -102 -79 -194 -84 -205 -5 -11 -48 -116 -96
-234 -47 -118 -96 -239 -109 -268 -13 -29 -25 -57 -26 -61 -2 -12 -15 -44 -93
-235 -41 -100 -99 -245 -130 -322 -31 -77 -61 -149 -66 -160 -5 -11 -29 -69
-54 -130 -24 -60 -79 -195 -121 -300 -107 -262 -202 -502 -270 -680 -31 -82
-61 -159 -66 -170 -10 -24 -138 -357 -246 -640 -42 -110 -83 -220 -93 -245
-10 -25 -35 -92 -57 -150 -22 -58 -120 -314 -218 -570 -98 -256 -188 -492
-200 -525 -13 -33 -41 -108 -64 -168 -22 -59 -41 -109 -41 -112 0 -3 18 -5 39
-5 41 0 41 -1 103 109 11 19 135 235 275 480 141 245 267 466 281 491 14 25
58 101 97 170 40 69 196 341 347 605 152 264 285 496 296 515 11 19 47 82 80
140 33 58 70 124 83 146 13 23 87 152 164 287 l140 245 107 76 c150 107 495
336 507 336 5 0 11 4 13 8 2 4 77 54 168 109 91 56 170 107 177 113 7 5 14 10
16 10 3 0 87 50 187 110 100 61 184 110 185 110 2 0 32 18 66 40 35 22 71 43
79 47 8 4 60 34 115 66 55 33 125 73 155 90 30 17 73 41 95 54 22 12 56 31 77
42 37 21 377 239 618 396 l135 89 -45 9 c-85 17 -409 13 -530 -7 -14 -3 -47
-7 -75 -11 l-50 -6 31 33 c17 18 53 57 80 87 27 30 56 61 65 70 9 9 42 45 74
81 32 36 102 112 155 170 53 58 143 156 199 217 l103 113 -136 -3 c-92 -2
-133 0 -129 7 4 6 86 110 183 231 336 419 539 693 667 898 105 167 119 235 43
210z m-1481 -560 c-14 -17 -55 -65 -74 -87 -5 -6 -39 -47 -75 -91 -35 -44 -69
-85 -75 -91 -5 -6 -26 -31 -45 -54 -19 -24 -46 -57 -60 -74 -14 -17 -39 -49
-55 -71 -16 -22 -32 -42 -35 -45 -15 -12 -298 -370 -427 -540 -261 -345 -589
-817 -870 -1255 -68 -105 -354 -574 -426 -696 -92 -157 -247 -430 -247 -434 0
-2 -13 -26 -28 -52 -16 -26 -55 -97 -87 -158 -32 -60 -77 -144 -100 -185 -23
-41 -62 -115 -87 -165 -94 -184 -163 -314 -165 -311 -6 6 92 241 225 541 144
324 404 840 509 1007 13 21 23 40 23 43 0 6 194 331 269 450 174 278 489 729
659 945 89 113 228 287 237 296 5 7 17 20 25 30 21 26 172 206 185 220 5 6 29
33 51 60 23 27 52 61 65 75 13 14 56 61 94 104 39 43 93 103 120 133 28 30 58
64 67 74 40 47 331 348 335 348 3 0 -1 -8 -8 -17z"/>
</g>
</svg>
